<svg width="115" height="115" viewBox="0 0 115 115" fill="none" xmlns="http://www.w3.org/2000/svg">
<circle cx="57.5" cy="57.5" r="57.5" fill="#CCCCCC"/>
<g opacity="0.8">
<path d="M78.1708 41.459H73.5417V36.8298C73.5417 35.5923 72.5333 34.584 71.2958 34.584H71.2271C69.9667 34.584 68.9583 35.5923 68.9583 36.8298V41.459H64.3521C63.1146 41.459 62.1063 42.4673 62.0833 43.7048V43.7736C62.0833 45.034 63.0917 46.0423 64.3521 46.0423H68.9583V50.6486C68.9583 51.8861 69.9667 52.9173 71.2271 52.8944H71.2958C72.5333 52.8944 73.5417 51.8861 73.5417 50.6486V46.0423H78.1708C79.4083 46.0423 80.4167 45.034 80.4167 43.7965V43.7048C80.4167 42.4673 79.4083 41.459 78.1708 41.459ZM66.6667 50.6486V48.334H64.3521C63.1375 48.334 61.9917 47.8527 61.1208 47.0048C60.2729 46.134 59.7917 44.9882 59.7917 43.7048C59.7917 42.8798 60.0208 42.1236 60.4104 41.459H41.4583C38.9375 41.459 36.875 43.5215 36.875 46.0423V73.5423C36.875 76.0632 38.9375 78.1257 41.4583 78.1257H68.9583C71.4792 78.1257 73.5417 76.0632 73.5417 73.5423V54.5673C72.8542 54.9569 72.075 55.209 71.2042 55.209C68.7062 55.1861 66.6667 53.1465 66.6667 50.6486ZM66.575 73.5423H43.75C42.8104 73.5423 42.2604 72.4652 42.8333 71.709L47.3708 65.6819C47.8521 65.0402 48.7917 65.0861 49.25 65.7277L52.9167 71.2507L58.8979 63.2757C59.3562 62.6798 60.25 62.6569 60.7083 63.2527L67.4688 71.6861C68.0646 72.4423 67.5375 73.5423 66.575 73.5423V73.5423Z" fill="white"/>
</g>
</svg>
